# xmcd
#
# Track frame offsets:
#	150
#	17271
#	31494
#	45845
#	62231
#	74513
#	91189
#	105126
#	119854
#	132134
#	145094
#	160706
#	173509
#
# Disc length: 2516 seconds
#
# Revision: 0
# Processed by: cddbd v1.5.2PL0 Copyright (c) Steve Scherf et al.
# Submitted via: audiograbber 1.83.01
#
DISCID=9d09d20d
DTITLE=Bubi Lechner - Romeo sucht Julia
DYEAR=2011
DGENRE=Après Ski
TTITLE0=Romeo sucht Julia (Disco Version)
TTITLE1=Engel im Herzen
TTITLE2=Bubi Bubi nocheinmal (Apres Ski Version)
TTITLE3=Wadl-Song
TTITLE4=S.O.S
TTITLE5=Ciao Bella
TTITLE6=Heimweh (Dort wo die Bumen bluehn)
TTITLE7=Liebe kann nicht Suende sein
TTITLE8=Schischul-Song
TTITLE9=Sag einfach Bubi
TTITLE10=Endlich Hoamkemmen
TTITLE11=Romeo sucht Julia (Radio Version)
TTITLE12=Bubi Bubi ncheinmal (Radio Version)
EXTD=
EXTT0=
EXTT1=
EXTT2=
EXTT3=
EXTT4=
EXTT5=
EXTT6=
EXTT7=
EXTT8=
EXTT9=
EXTT10=
EXTT11=
EXTT12=
PLAYORDER=
